<svg width="51" height="53" viewBox="0 0 51 53" fill="none" xmlns="http://www.w3.org/2000/svg">
<g clip-path="url(#clip0_17_343)">
<path d="M42.6113 23.1577V43.6666H8.3891V16.7777H12.0558V14.3333H8.08354C7.79783 14.338 7.51586 14.399 7.25373 14.5128C6.99161 14.6266 6.75446 14.7909 6.55584 14.9963C6.35721 15.2017 6.20101 15.4443 6.09614 15.7101C5.99127 15.9759 5.93979 16.2598 5.94465 16.5455V43.8988C5.93979 44.1845 5.99127 44.4684 6.09614 44.7342C6.20101 45 6.35721 45.2425 6.55584 45.448C6.75446 45.6534 6.99161 45.8177 7.25373 45.9315C7.51586 46.0452 7.79783 46.1062 8.08354 46.111H42.9169C43.2026 46.1062 43.4846 46.0452 43.7467 45.9315C44.0088 45.8177 44.246 45.6534 44.4446 45.448C44.6432 45.2425 44.7994 45 44.9043 44.7342C45.0092 44.4684 45.0606 44.1845 45.0558 43.8988V22.0821C44.2982 22.5588 43.4746 22.9213 42.6113 23.1577Z" fill="black"/>
<path d="M13.2778 24.1111H15.7223V26.5555H13.2778V24.1111Z" fill="black"/>
<path d="M20.6113 24.1111H23.0558V26.5555H20.6113V24.1111Z" fill="black"/>
<path d="M27.9443 24.1111H30.3888V26.5555H27.9443V24.1111Z" fill="black"/>
<path d="M35.2778 24.1111H37.7223V26.5555H35.2778V24.1111Z" fill="black"/>
<path d="M13.2778 30.2222H15.7223V32.6666H13.2778V30.2222Z" fill="black"/>
<path d="M20.6113 30.2222H23.0558V32.6666H20.6113V30.2222Z" fill="black"/>
<path d="M27.9443 30.2222H30.3888V32.6666H27.9443V30.2222Z" fill="black"/>
<path d="M35.2778 30.2222H37.7223V32.6666H35.2778V30.2222Z" fill="black"/>
<path d="M13.2778 36.3333H15.7223V38.7777H13.2778V36.3333Z" fill="black"/>
<path d="M20.6113 36.3333H23.0558V38.7777H20.6113V36.3333Z" fill="black"/>
<path d="M27.9443 36.3333H30.3888V38.7777H27.9443V36.3333Z" fill="black"/>
<path d="M35.2778 36.3333H37.7223V38.7777H35.2778V36.3333Z" fill="black"/>
<path d="M15.7222 19.2221C16.0464 19.2221 16.3573 19.0933 16.5865 18.8641C16.8157 18.6349 16.9444 18.324 16.9444 17.9999V10.6666C16.9444 10.3424 16.8157 10.0315 16.5865 9.80232C16.3573 9.57311 16.0464 9.44434 15.7222 9.44434C15.3981 9.44434 15.0872 9.57311 14.858 9.80232C14.6288 10.0315 14.5 10.3424 14.5 10.6666V17.9999C14.5 18.324 14.6288 18.6349 14.858 18.8641C15.0872 19.0933 15.3981 19.2221 15.7222 19.2221Z" fill="black"/>
<path d="M30.9998 14.3333H19.3887V16.7777H31.342C31.1181 15.9821 31.003 15.1598 30.9998 14.3333Z" fill="black"/>
<path d="M40.1668 20.4444C43.5418 20.4444 46.2779 17.7084 46.2779 14.3333C46.2779 10.9582 43.5418 8.22217 40.1668 8.22217C36.7917 8.22217 34.0557 10.9582 34.0557 14.3333C34.0557 17.7084 36.7917 20.4444 40.1668 20.4444Z" fill="black"/>
</g>
<defs>
<clipPath id="clip0_17_343">
<rect width="44" height="44" fill="white" transform="translate(3.5 7)"/>
</clipPath>
</defs>
</svg>
