<svg width="51" height="53" viewBox="0 0 51 53" fill="none" xmlns="http://www.w3.org/2000/svg">
<path d="M45.2454 13.4952L26.0067 7.08228C25.6776 6.97257 25.3218 6.97257 24.9926 7.08228L5.75392 13.4952C5.43469 13.6016 5.15703 13.8058 4.96029 14.0788C4.76355 14.3518 4.65769 14.6797 4.65771 15.0163V31.0485C4.65771 31.4737 4.82663 31.8815 5.12729 32.1822C5.42795 32.4828 5.83574 32.6517 6.26094 32.6517C6.68614 32.6517 7.09393 32.4828 7.39459 32.1822C7.69526 31.8815 7.86417 31.4737 7.86417 31.0485V17.2407L14.5957 19.4832C12.8072 22.3727 12.2385 25.8537 13.0144 29.1621C13.7903 32.4705 15.8474 35.3358 18.734 37.1288C15.1268 38.5436 12.0085 41.1028 9.72792 44.6018C9.60931 44.7781 9.52693 44.9762 9.48555 45.1846C9.44418 45.393 9.44464 45.6075 9.48692 45.8158C9.52919 46.024 9.61243 46.2217 9.7318 46.3975C9.85116 46.5732 10.0043 46.7235 10.1822 46.8396C10.3602 46.9557 10.5595 47.0352 10.7684 47.0736C10.9774 47.112 11.1919 47.1085 11.3995 47.0632C11.6071 47.018 11.8036 46.9319 11.9777 46.81C12.1517 46.6882 12.2998 46.5329 12.4133 46.3533C15.4334 41.72 20.203 39.0647 25.4997 39.0647C30.7963 39.0647 35.5659 41.72 38.586 46.3533C38.8212 46.7028 39.1844 46.9457 39.5972 47.0295C40.01 47.1133 40.4392 47.0313 40.792 46.8012C41.1448 46.5711 41.3929 46.2113 41.4826 45.7998C41.5723 45.3882 41.4965 44.9579 41.2714 44.6018C38.9908 41.1028 35.8605 38.5436 32.2653 37.1288C35.1491 35.3358 37.2043 32.4725 37.9801 29.1665C38.7559 25.8605 38.1889 22.3818 36.4036 19.4933L45.2454 16.5473C45.5647 16.441 45.8424 16.2368 46.0393 15.9638C46.2361 15.6908 46.342 15.3628 46.342 15.0263C46.342 14.6897 46.2361 14.3617 46.0393 14.0887C45.8424 13.8157 45.5647 13.6116 45.2454 13.5052V13.4952ZM35.119 26.2388C35.1195 27.7596 34.7593 29.2588 34.0681 30.6134C33.377 31.9681 32.3745 33.1395 31.1429 34.0317C29.9113 34.9239 28.4857 35.5113 26.9832 35.7458C25.4806 35.9804 23.9438 35.8553 22.4989 35.3809C21.054 34.9065 19.7422 34.0963 18.6711 33.0167C17.6 31.9372 16.8001 30.619 16.337 29.1705C15.874 27.7219 15.761 26.1842 16.0073 24.6835C16.2536 23.1828 16.8523 21.7619 17.7541 20.5374L24.9926 22.9422C25.3218 23.0519 25.6776 23.0519 26.0067 22.9422L33.2453 20.5374C34.4632 22.1887 35.1199 24.1869 35.119 26.2388ZM25.4997 19.7398L11.3311 15.0163L25.4997 10.2927L39.6682 15.0163L25.4997 19.7398Z" fill="black"/>
</svg>
