<svg width="41" height="40" viewBox="0 0 41 40" fill="none" xmlns="http://www.w3.org/2000/svg">
<rect x="1.28516" y="0.5" width="39" height="39" rx="19.5" fill="white"/>
<rect x="1.28516" y="0.5" width="39" height="39" rx="19.5" stroke="#DEDEDE"/>
<path d="M16.911 20.2111L21.4346 24.6959C21.5101 24.7707 21.6103 24.8125 21.7146 24.8125C21.8189 24.8125 21.9192 24.7707 21.9947 24.6959L21.9995 24.6908C22.0362 24.6545 22.0655 24.6108 22.0855 24.5624C22.1054 24.514 22.1157 24.4618 22.1157 24.4091C22.1157 24.3564 22.1054 24.3043 22.0855 24.2559C22.0655 24.2074 22.0362 24.1637 21.9995 24.1275L17.7398 19.9045L21.9995 15.6832C22.0362 15.6469 22.0655 15.6032 22.0855 15.5548C22.1054 15.5064 22.1157 15.4542 22.1157 15.4015C22.1157 15.3488 22.1054 15.2967 22.0855 15.2483C22.0655 15.1998 22.0362 15.1561 21.9995 15.1199L21.9947 15.1148C21.9192 15.0399 21.8189 14.9981 21.7146 14.9981C21.6103 14.9981 21.5101 15.0399 21.4346 15.1148L16.911 19.5996C16.8713 19.639 16.8396 19.6865 16.818 19.739C16.7963 19.7916 16.7852 19.8481 16.7852 19.9053C16.7852 19.9625 16.7963 20.0191 16.818 20.0716C16.8396 20.1242 16.8713 20.1716 16.911 20.2111Z" fill="black"/>
</svg>
