<svg width="39" height="39" viewBox="0 0 39 39" fill="none" xmlns="http://www.w3.org/2000/svg">
<path d="M38.7139 36.9181C38.7139 37.3422 38.5851 37.7133 38.3277 38.0313C38.0702 38.3494 37.7143 38.5084 37.2599 38.5084C36.8661 38.5084 36.5254 38.3645 36.2376 38.0768L26.9006 28.6261C25.4466 29.8226 23.8564 30.7389 22.1298 31.375C20.4032 32.0111 18.5858 32.3291 16.6775 32.3291C15.2084 32.3291 13.7923 32.1398 12.4292 31.7612C11.0662 31.3825 9.79397 30.8449 8.61263 30.1482C7.4313 29.4515 6.35599 28.6185 5.38669 27.6492C4.41739 26.6799 3.57683 25.597 2.865 24.4006C2.15317 23.2041 1.61552 21.9319 1.25203 20.584C0.888543 19.236 0.699227 17.8199 0.684082 16.3357C0.684082 14.8666 0.873398 13.4505 1.25203 12.0875C1.63066 10.7244 2.16832 9.45217 2.865 8.27084C3.56168 7.08951 4.39468 6.01419 5.36397 5.0449C6.33327 4.0756 7.41616 3.23503 8.61263 2.52321C9.80911 1.81138 11.0813 1.27372 12.4292 0.910233C13.7772 0.546746 15.1933 0.35743 16.6775 0.342285C18.1466 0.342285 19.5627 0.531601 20.9257 0.910233C22.2888 1.28887 23.561 1.82652 24.7424 2.52321C25.9237 3.21989 26.999 4.05288 27.9683 5.02218C28.9376 5.99148 29.7782 7.07436 30.49 8.27084C31.2018 9.46732 31.7395 10.7395 32.103 12.0875C32.4664 13.4354 32.6558 14.8515 32.6709 16.3357C32.6709 18.2289 32.3529 20.0387 31.7168 21.7653C31.0807 23.4919 30.1644 25.0897 28.9679 26.5588L30.2628 27.8537C30.8989 28.4898 31.6713 29.2471 32.58 30.1255C33.4888 31.0039 34.4732 31.9656 35.5334 33.0107C36.5935 34.0557 29.1723 26.7632 30.2628 27.8537C31.3533 28.9442 32.4059 30.0043 33.4206 31.0342C34.4353 32.0641 35.3365 32.9955 36.124 33.8285C36.9116 34.6615 37.5401 35.3506 38.0096 35.8958C38.4791 36.4411 38.7139 36.7818 38.7139 36.9181ZM16.6775 29.4212C18.4798 29.4212 20.1761 29.0805 21.7663 28.3989C23.3566 27.7174 24.7424 26.7784 25.9237 25.5819C27.105 24.3854 28.0365 22.9996 28.718 21.4245C29.3995 19.8494 29.7479 18.1531 29.763 16.3357C29.763 14.5334 29.4222 12.8371 28.7407 11.2469C28.0592 9.65664 27.1202 8.27084 25.9237 7.08951C24.7272 5.90818 23.3414 4.97674 21.7663 4.2952C20.1912 3.61367 18.4949 3.26533 16.6775 3.25018C14.8752 3.25018 13.1789 3.59095 11.5887 4.27249C9.99843 4.95402 8.61263 5.89303 7.4313 7.08951C6.24997 8.28599 5.31854 9.67178 4.637 11.2469C3.95546 12.822 3.60712 14.5183 3.59198 16.3357C3.59198 18.138 3.93274 19.8343 4.61428 21.4245C5.29582 23.0148 6.23483 24.4006 7.4313 25.5819C8.62778 26.7632 10.0136 27.6947 11.5887 28.3762C13.1638 29.0577 14.8601 29.4061 16.6775 29.4212Z" fill="#333333"/>
</svg>
