<svg width="40" height="40" viewBox="0 0 40 40" fill="none" xmlns="http://www.w3.org/2000/svg">
<rect x="0.5" y="0.5" width="38.7851" height="39" rx="19.3926" fill="white"/>
<rect x="0.5" y="0.5" width="38.7851" height="39" rx="19.3926" stroke="#DEDEDE"/>
<path d="M16.1259 20.2111L20.6494 24.6959C20.7249 24.7707 20.8252 24.8125 20.9295 24.8125C21.0337 24.8125 21.134 24.7707 21.2095 24.6959L21.2144 24.6908C21.2511 24.6545 21.2803 24.6108 21.3003 24.5624C21.3203 24.514 21.3306 24.4618 21.3306 24.4091C21.3306 24.3564 21.3203 24.3043 21.3003 24.2559C21.2803 24.2074 21.2511 24.1637 21.2144 24.1275L16.9546 19.9045L21.2144 15.6832C21.2511 15.6469 21.2803 15.6032 21.3003 15.5548C21.3203 15.5064 21.3306 15.4542 21.3306 15.4015C21.3306 15.3488 21.3203 15.2967 21.3003 15.2483C21.2803 15.1998 21.2511 15.1561 21.2144 15.1199L21.2095 15.1148C21.134 15.0399 21.0337 14.9981 20.9295 14.9981C20.8252 14.9981 20.7249 15.0399 20.6494 15.1148L16.1259 19.5996C16.0861 19.639 16.0544 19.6865 16.0328 19.739C16.0112 19.7916 16 19.8481 16 19.9053C16 19.9625 16.0112 20.0191 16.0328 20.0716C16.0544 20.1242 16.0861 20.1716 16.1259 20.2111Z" fill="black"/>
<g clip-path="url(#clip0_29_246)">
<path d="M18.4565 20.3986L22.98 24.8834C23.0555 24.9582 23.1558 25 23.26 25C23.3643 25 23.4646 24.9582 23.5401 24.8834L23.5449 24.8783C23.5817 24.842 23.6109 24.7983 23.6309 24.7499C23.6508 24.7015 23.6611 24.6493 23.6611 24.5966C23.6611 24.5439 23.6508 24.4918 23.6309 24.4434C23.6109 24.3949 23.5817 24.3512 23.5449 24.315L19.2852 20.092L23.5449 15.8707C23.5817 15.8344 23.6109 15.7907 23.6309 15.7423C23.6508 15.6939 23.6611 15.6417 23.6611 15.589C23.6611 15.5363 23.6508 15.4842 23.6309 15.4358C23.6109 15.3873 23.5817 15.3436 23.5449 15.3074L23.5401 15.3023C23.4646 15.2274 23.3643 15.1856 23.26 15.1856C23.1558 15.1856 23.0555 15.2274 22.98 15.3023L18.4565 19.7871C18.4167 19.8265 18.385 19.874 18.3634 19.9265C18.3417 19.9791 18.3306 20.0356 18.3306 20.0928C18.3306 20.15 18.3417 20.2066 18.3634 20.2591C18.385 20.3117 18.4167 20.3591 18.4565 20.3986Z" fill="black"/>
</g>
<defs>
<clipPath id="clip0_29_246">
<rect width="10" height="5.45455" fill="white" transform="translate(18.3306 25) rotate(-90)"/>
</clipPath>
</defs>
</svg>
