<svg width="16" height="16" viewBox="0 0 16 16" fill="none" xmlns="http://www.w3.org/2000/svg">
<path d="M10.6198 7.63755L5.0468 2.32755C4.95381 2.2389 4.83027 2.18945 4.7018 2.18945C4.57333 2.18945 4.44979 2.2389 4.3568 2.32755L4.3508 2.33355C4.30557 2.37652 4.26955 2.42825 4.24493 2.48558C4.22032 2.54291 4.20763 2.60466 4.20763 2.66705C4.20763 2.72944 4.22032 2.79118 4.24493 2.84852C4.26955 2.90585 4.30557 2.95757 4.3508 3.00055L9.5988 8.00055L4.3508 12.9985C4.30557 13.0415 4.26955 13.0932 4.24493 13.1506C4.22032 13.2079 4.20763 13.2697 4.20763 13.332C4.20763 13.3944 4.22032 13.4562 4.24493 13.5135C4.26955 13.5708 4.30557 13.6226 4.3508 13.6655L4.3568 13.6715C4.44979 13.7602 4.57333 13.8096 4.7018 13.8096C4.83027 13.8096 4.95381 13.7602 5.0468 13.6715L10.6198 8.36155C10.6688 8.31485 10.7078 8.25869 10.7345 8.19646C10.7612 8.13424 10.7749 8.06725 10.7749 7.99955C10.7749 7.93185 10.7612 7.86486 10.7345 7.80264C10.7078 7.74041 10.6688 7.68425 10.6198 7.63755Z" fill="#CCCCCC"/>
</svg>
