<svg width="51" height="53" viewBox="0 0 51 53" fill="none" xmlns="http://www.w3.org/2000/svg">
<g clip-path="url(#clip0_17_335)">
<path d="M50.128 11.6854C48.7482 10.2069 47.079 9.02801 45.2243 8.22197C43.3695 7.41594 41.3688 7 39.3464 7C37.3241 7 35.3233 7.41594 33.4686 8.22197C31.6138 9.02801 29.9446 10.2069 28.5648 11.6854C27.2777 13.0385 26.2388 14.6076 25.4957 16.3209C24.7521 14.6092 23.7132 13.0417 22.4266 11.6899C21.0468 10.2114 19.3776 9.03255 17.5228 8.22652C15.668 7.42049 13.6673 7.00455 11.645 7.00455C9.62262 7.00455 7.62189 7.42049 5.76711 8.22652C3.91234 9.03255 2.24316 10.2114 0.863331 11.6899C0.712284 11.8496 0.602063 12.0434 0.542054 12.2549C0.482045 12.4663 0.474024 12.6892 0.518676 12.9044C0.563327 13.1196 0.659328 13.3209 0.798504 13.491C0.937679 13.6611 1.11591 13.7951 1.31801 13.8815L15.3745 19.997C14.9539 20.0743 14.5333 20.1652 14.115 20.2766C12.0979 20.8049 10.2055 21.7276 8.54714 22.9915C6.88875 24.2554 5.49725 25.8354 4.45304 27.6402C3.40182 29.4338 2.71954 31.4193 2.44626 33.4802C2.17298 35.5411 2.31421 37.6359 2.86165 39.6415C2.91985 39.8576 3.03034 40.0561 3.18337 40.2194C3.33641 40.3828 3.5273 40.506 3.73919 40.5781C3.88058 40.6258 4.02874 40.6504 4.17796 40.6509C4.47699 40.6509 4.76774 40.5526 5.00548 40.3712L24.1316 25.7873V50.1946C24.1316 50.5564 24.2754 50.9033 24.5312 51.1591C24.787 51.4149 25.1339 51.5587 25.4957 51.5587C25.8575 51.5587 26.2044 51.4149 26.4602 51.1591C26.716 50.9033 26.8597 50.5564 26.8597 50.1946V25.7873L45.995 40.3667C46.2327 40.5481 46.5235 40.6463 46.8225 40.6463C46.9717 40.6458 47.1199 40.6213 47.2613 40.5736C47.4732 40.5014 47.6641 40.3782 47.8171 40.2149C47.9701 40.0516 48.0806 39.8531 48.1388 39.6369C48.6863 37.6313 48.8275 35.5366 48.5542 33.4757C48.2809 31.4148 47.5987 29.4292 46.5474 27.6356C45.5032 25.8308 44.1117 24.2508 42.4533 22.9869C40.7949 21.723 38.9025 20.8003 36.8855 20.272C36.4672 20.1606 36.0466 20.0697 35.626 19.9924L49.6825 13.877C49.8846 13.7905 50.0628 13.6566 50.202 13.4864C50.3411 13.3163 50.4371 13.1151 50.4818 12.8998C50.5264 12.6846 50.5184 12.4618 50.4584 12.2503C50.3984 12.0389 50.2882 11.8451 50.1371 11.6854H50.128ZM11.6461 9.72799C13.2981 9.73189 14.9317 10.0744 16.4461 10.7345C17.9606 11.3945 19.3236 12.358 20.451 13.5655C22.3315 15.5479 23.559 18.0592 23.968 20.7608L4.3371 12.2287C6.42967 10.6095 9.00019 9.73 11.6461 9.72799ZM5.10096 36.8565C4.81839 34.1256 5.41408 31.3757 6.80147 29.0065C7.66853 27.5128 8.82261 26.2054 10.1972 25.1597C11.5718 24.114 13.1397 23.3507 14.8107 22.9137C15.9319 22.6136 17.0874 22.4607 18.2481 22.4591C19.8348 22.4585 21.4085 22.7458 22.8926 23.307L5.10096 36.8565ZM44.1899 29.0065C45.5773 31.3757 46.173 34.1256 45.8904 36.8565L28.1033 23.3048C31.0265 22.2053 34.2442 22.1745 37.1879 23.2178C40.1315 24.2612 42.6117 26.3115 44.1899 29.0065ZM27.0234 20.7608C27.4324 18.0592 28.6599 15.5479 30.5404 13.5655C31.6678 12.358 33.0308 11.3945 34.5452 10.7345C36.0596 10.0744 37.6933 9.73189 39.3453 9.72799C41.9912 9.73 44.5617 10.6095 46.6543 12.2287L27.0234 20.7608Z" fill="black"/>
</g>
<defs>
<clipPath id="clip0_17_335">
<rect width="50" height="53" fill="white" transform="translate(0.5)"/>
</clipPath>
</defs>
</svg>
