<svg width="41" height="40" viewBox="0 0 41 40" fill="none" xmlns="http://www.w3.org/2000/svg">
<rect x="40.0703" y="39.5" width="38.7851" height="39" rx="19.3926" transform="rotate(-180 40.0703 39.5)" fill="white"/>
<rect x="40.0703" y="39.5" width="38.7851" height="39" rx="19.3926" transform="rotate(-180 40.0703 39.5)" stroke="#DEDEDE"/>
<path d="M24.4444 19.7889L19.9209 15.3041C19.8454 15.2293 19.7451 15.1875 19.6408 15.1875C19.5366 15.1875 19.4363 15.2293 19.3608 15.3041L19.3559 15.3092C19.3192 15.3455 19.29 15.3892 19.27 15.4376C19.25 15.486 19.2397 15.5382 19.2397 15.5909C19.2397 15.6436 19.25 15.6957 19.27 15.7441C19.29 15.7926 19.3192 15.8363 19.3559 15.8725L23.6157 20.0955L19.3559 24.3168C19.3192 24.3531 19.29 24.3968 19.27 24.4452C19.25 24.4936 19.2397 24.5458 19.2397 24.5985C19.2397 24.6512 19.25 24.7033 19.27 24.7517C19.29 24.8002 19.3192 24.8439 19.3559 24.8801L19.3608 24.8852C19.4363 24.9601 19.5366 25.0019 19.6408 25.0019C19.7451 25.0019 19.8454 24.9601 19.9209 24.8852L24.4444 20.4004C24.4842 20.361 24.5159 20.3135 24.5375 20.261C24.5592 20.2084 24.5703 20.1519 24.5703 20.0947C24.5703 20.0375 24.5592 19.9809 24.5375 19.9284C24.5159 19.8758 24.4842 19.8284 24.4444 19.7889Z" fill="black"/>
<g clip-path="url(#clip0_29_254)">
<path d="M22.1139 19.6014L17.5903 15.1166C17.5148 15.0418 17.4146 15 17.3103 15C17.206 15 17.1057 15.0418 17.0302 15.1166L17.0254 15.1217C16.9887 15.158 16.9594 15.2017 16.9394 15.2501C16.9195 15.2985 16.9092 15.3507 16.9092 15.4034C16.9092 15.4561 16.9195 15.5082 16.9394 15.5566C16.9594 15.6051 16.9887 15.6488 17.0254 15.685L21.2851 19.908L17.0254 24.1293C16.9887 24.1656 16.9594 24.2093 16.9394 24.2577C16.9195 24.3061 16.9092 24.3583 16.9092 24.411C16.9092 24.4637 16.9195 24.5158 16.9394 24.5642C16.9594 24.6127 16.9887 24.6564 17.0254 24.6926L17.0302 24.6977C17.1057 24.7726 17.206 24.8144 17.3103 24.8144C17.4146 24.8144 17.5148 24.7726 17.5903 24.6977L22.1139 20.2129C22.1536 20.1735 22.1853 20.126 22.2069 20.0735C22.2286 20.0209 22.2397 19.9644 22.2397 19.9072C22.2397 19.85 22.2286 19.7934 22.2069 19.7409C22.1853 19.6883 22.1536 19.6409 22.1139 19.6014Z" fill="black"/>
</g>
<defs>
<clipPath id="clip0_29_254">
<rect width="10" height="5.45455" fill="white" transform="translate(22.2397 15) rotate(90)"/>
</clipPath>
</defs>
</svg>
