<svg width="41" height="40" viewBox="0 0 41 40" fill="none" xmlns="http://www.w3.org/2000/svg">
<rect x="40.2852" y="39.5" width="39" height="39" rx="19.5" transform="rotate(-180 40.2852 39.5)" fill="white"/>
<rect x="40.2852" y="39.5" width="39" height="39" rx="19.5" transform="rotate(-180 40.2852 39.5)" stroke="#DEDEDE"/>
<path d="M24.6593 19.7889L20.1357 15.3041C20.0602 15.2293 19.96 15.1875 19.8557 15.1875C19.7514 15.1875 19.6511 15.2293 19.5757 15.3041L19.5708 15.3092C19.5341 15.3455 19.5048 15.3892 19.4849 15.4376C19.4649 15.486 19.4546 15.5382 19.4546 15.5909C19.4546 15.6436 19.4649 15.6957 19.4849 15.7441C19.5048 15.7926 19.5341 15.8363 19.5708 15.8725L23.8305 20.0955L19.5708 24.3168C19.5341 24.3531 19.5048 24.3968 19.4849 24.4452C19.4649 24.4936 19.4546 24.5458 19.4546 24.5985C19.4546 24.6512 19.4649 24.7033 19.4849 24.7517C19.5048 24.8002 19.5341 24.8439 19.5708 24.8801L19.5757 24.8852C19.6511 24.9601 19.7514 25.0019 19.8557 25.0019C19.96 25.0019 20.0602 24.9601 20.1357 24.8852L24.6593 20.4004C24.699 20.361 24.7307 20.3135 24.7524 20.261C24.774 20.2084 24.7852 20.1519 24.7852 20.0947C24.7852 20.0375 24.774 19.9809 24.7524 19.9284C24.7307 19.8758 24.699 19.8284 24.6593 19.7889Z" fill="black"/>
</svg>
