<svg width="45" height="53" viewBox="0 0 45 53" fill="none" xmlns="http://www.w3.org/2000/svg">
<g clip-path="url(#clip0_17_271)">
<path d="M13.6033 9.48485C12.0861 9.48485 10.631 10.0739 9.55824 11.1224C8.48543 12.1709 7.88273 13.593 7.88273 15.0758C7.88273 16.5586 8.48543 17.9806 9.55824 19.0291C10.631 20.0776 12.0861 20.6667 13.6033 20.6667C15.1204 20.6667 16.5755 20.0776 17.6483 19.0291C18.7211 17.9806 19.3238 16.5586 19.3238 15.0758C19.3238 13.593 18.7211 12.1709 17.6483 11.1224C16.5755 10.0739 15.1204 9.48485 13.6033 9.48485ZM5.34028 15.0758C5.34028 12.9339 6.21084 10.8798 7.76045 9.36533C9.31006 7.85084 11.4118 7 13.6033 7C15.7947 7 17.8965 7.85084 19.4461 9.36533C20.9957 10.8798 21.8662 12.9339 21.8662 15.0758C21.8662 17.2176 20.9957 19.2717 19.4461 20.7862C17.8965 22.3007 15.7947 23.1515 13.6033 23.1515C11.4118 23.1515 9.31006 22.3007 7.76045 20.7862C6.21084 19.2717 5.34028 17.2176 5.34028 15.0758ZM5.34028 25.6364C3.99168 25.6364 2.69831 26.16 1.74471 27.092C0.791101 28.024 0.255371 29.288 0.255371 30.6061V30.8148C0.259029 30.9601 0.269209 31.1052 0.28588 31.2496C0.466077 32.86 1.05129 34.4017 1.98932 35.7373C3.77158 38.2594 7.21407 40.5455 13.6033 40.5455C16.0084 40.5455 17.9941 40.2224 19.6314 39.6832C19.4517 38.8632 19.35 38.0184 19.3263 37.1487C17.8924 37.7003 16.0288 38.0606 13.6033 38.0606C7.91578 38.0606 5.31994 36.0752 4.08176 34.3259C3.38833 33.3371 2.95359 32.1972 2.81562 31.0061L2.80037 30.7999L2.79783 30.7576V30.6061C2.79783 29.947 3.06569 29.315 3.54249 28.849C4.0193 28.383 4.66598 28.1212 5.34028 28.1212H21.8662C22.0713 28.1212 22.2705 28.1444 22.4637 28.1908C23.04 27.495 23.6824 26.8614 24.3909 26.2899C23.6219 25.8609 22.7516 25.6357 21.8662 25.6364H5.34028ZM33.3073 13.2121C32.2958 13.2121 31.3258 13.6048 30.6106 14.3038C29.8954 15.0028 29.4936 15.9509 29.4936 16.9394C29.4936 17.9279 29.8954 18.876 30.6106 19.575C31.3258 20.274 32.2958 20.6667 33.3073 20.6667C34.3187 20.6667 35.2887 20.274 36.004 19.575C36.7192 18.876 37.121 17.9279 37.121 16.9394C37.121 15.9509 36.7192 15.0028 36.004 14.3038C35.2887 13.6048 34.3187 13.2121 33.3073 13.2121ZM26.9511 16.9394C26.9511 15.2918 27.6208 13.7118 28.8128 12.5468C30.0048 11.3818 31.6215 10.7273 33.3073 10.7273C34.993 10.7273 36.6097 11.3818 37.8017 12.5468C38.9937 13.7118 39.6634 15.2918 39.6634 16.9394C39.6634 18.587 38.9937 20.167 37.8017 21.332C36.6097 22.497 34.993 23.1515 33.3073 23.1515C31.6215 23.1515 30.0048 22.497 28.8128 21.332C27.6208 20.167 26.9511 18.587 26.9511 16.9394ZM33.3073 48C35.8172 47.9992 38.2572 47.1918 40.2513 45.7022C42.2455 44.2126 43.6831 42.1234 44.3426 39.7566C45.0022 37.3897 44.8471 34.8766 43.9013 32.6044C42.9554 30.3322 41.2713 28.427 39.1085 27.1825C36.9456 25.9379 34.424 25.4229 31.9322 25.717C29.4404 26.0111 27.1166 27.0978 25.319 28.8098C23.5214 30.5217 22.3497 32.7639 21.9845 35.1908C21.6192 37.6178 22.0806 40.0947 23.2976 42.2401L21.9145 46.6855C21.8609 46.8615 21.8569 47.0484 21.903 47.2264C21.9491 47.4044 22.0436 47.567 22.1765 47.6968C22.3093 47.8267 22.4756 47.919 22.6578 47.9641C22.8399 48.0091 23.0311 48.0052 23.2112 47.9528L27.7622 46.601C29.4593 47.5192 31.3675 48.0006 33.3073 48ZM26.9511 34.3333C26.9511 34.0038 27.0851 33.6878 27.3235 33.4548C27.5619 33.2218 27.8852 33.0909 28.2224 33.0909H38.3922C38.7293 33.0909 39.0527 33.2218 39.2911 33.4548C39.5295 33.6878 39.6634 34.0038 39.6634 34.3333C39.6634 34.6628 39.5295 34.9789 39.2911 35.2119C39.0527 35.4449 38.7293 35.5758 38.3922 35.5758H28.2224C27.8852 35.5758 27.5619 35.4449 27.3235 35.2119C27.0851 34.9789 26.9511 34.6628 26.9511 34.3333ZM28.2224 40.5455C27.8852 40.5455 27.5619 40.4146 27.3235 40.1816C27.0851 39.9486 26.9511 39.6325 26.9511 39.303C26.9511 38.9735 27.0851 38.6575 27.3235 38.4245C27.5619 38.1915 27.8852 38.0606 28.2224 38.0606H33.3073C33.6444 38.0606 33.9678 38.1915 34.2062 38.4245C34.4446 38.6575 34.5785 38.9735 34.5785 39.303C34.5785 39.6325 34.4446 39.9486 34.2062 40.1816C33.9678 40.4146 33.6444 40.5455 33.3073 40.5455H28.2224Z" fill="black"/>
</g>
<defs>
<clipPath id="clip0_17_271">
<rect width="44.4894" height="53" fill="white" transform="translate(0.255371)"/>
</clipPath>
</defs>
</svg>
